<svg width="75" height="1078" viewBox="0 0 75 1078" fill="none" xmlns="http://www.w3.org/2000/svg">
<path d="M0 -2H75V1078H0V-2Z" fill="white"/>
<path d="M22.3333 535H51.6667" stroke="#2C3E50" stroke-width="2.75" stroke-linecap="round" stroke-linejoin="round"/>
<path d="M22.3333 546H51.6667" stroke="#2C3E50" stroke-width="2.75" stroke-linecap="round" stroke-linejoin="round"/>
<path d="M22.3333 557H51.6667" stroke="#2C3E50" stroke-width="2.75" stroke-linecap="round" stroke-linejoin="round"/>
<path fill-rule="evenodd" clip-rule="evenodd" d="M34.625 176.25C34.625 174.938 35.6883 173.875 37 173.875C38.3117 173.875 39.375 174.938 39.375 176.25V182.5C39.375 183.812 38.3117 184.875 37 184.875C35.6883 184.875 34.625 183.812 34.625 182.5V176.25ZM37 171.125C34.1695 171.125 31.875 173.42 31.875 176.25V182.5C31.875 185.33 34.1695 187.625 37 187.625C39.8305 187.625 42.125 185.33 42.125 182.5V176.25C42.125 173.42 39.8305 171.125 37 171.125ZM29.625 182.5C29.625 181.741 29.0094 181.125 28.25 181.125C27.4906 181.125 26.875 181.741 26.875 182.5C26.875 185.185 27.9417 187.761 29.8405 189.659C31.4123 191.231 33.4475 192.233 35.625 192.531V194.875H32C31.2406 194.875 30.625 195.491 30.625 196.25C30.625 197.009 31.2406 197.625 32 197.625H37H42C42.7594 197.625 43.375 197.009 43.375 196.25C43.375 195.491 42.7594 194.875 42 194.875H38.375V192.531C40.5525 192.233 42.5877 191.231 44.1595 189.659C46.0583 187.761 47.125 185.185 47.125 182.5C47.125 181.741 46.5094 181.125 45.75 181.125C44.9906 181.125 44.375 181.741 44.375 182.5C44.375 184.456 43.598 186.332 42.2149 187.715C40.8318 189.098 38.956 189.875 37 189.875C35.044 189.875 33.1682 189.098 31.7851 187.715C30.402 186.332 29.625 184.456 29.625 182.5Z" fill="url(#paint0_linear_2_1236)"/>
<circle cx="37" cy="1003" r="25" fill="#C4C4C4"/>
<path d="M37 1010.33C41.0501 1010.33 44.3333 1007.05 44.3333 1003C44.3333 998.95 41.0501 995.667 37 995.667C32.9499 995.667 29.6667 998.95 29.6667 1003C29.6667 1007.05 32.9499 1010.33 37 1010.33Z" stroke="#2C3E50" stroke-width="2.75" stroke-linecap="round" stroke-linejoin="round"/>
<path d="M26.55 1013.45L25.2667 1014.73M20.5 1003H22.3333H20.5ZM37 986.5V988.333V986.5ZM51.6667 1003H53.5H51.6667ZM37 1017.67V1019.5V1017.67ZM25.2667 991.267L26.55 992.55L25.2667 991.267ZM48.7333 991.267L47.45 992.55L48.7333 991.267ZM47.45 1013.45L48.7333 1014.73L47.45 1013.45Z" stroke="#2C3E50" stroke-width="2.75" stroke-linecap="round" stroke-linejoin="round"/>
<defs>
<linearGradient id="paint0_linear_2_1236" x1="27" y1="171" x2="46.5" y2="198" gradientUnits="userSpaceOnUse">
<stop stop-color="#BB00DA" stop-opacity="0.85"/>
<stop offset="1" stop-color="#3B81C1"/>
</linearGradient>
</defs>
</svg>
